<?xml version="1.0" standalone="no"?>
<!DOCTYPE svg PUBLIC "-//W3C//DTD SVG 20010904//EN"
 "http://www.w3.org/TR/2001/REC-SVG-20010904/DTD/svg10.dtd">
<svg version="1.0" xmlns="http://www.w3.org/2000/svg"
 width="394.000000pt" height="119.000000pt" viewBox="0 0 394.000000 119.000000"
 preserveAspectRatio="xMidYMid meet">

<g transform="translate(0.000000,119.000000) scale(0.100000,-0.100000)"
fill="#000000" stroke="none">
<path d="M0 595 l0 -595 1970 0 1970 0 0 595 0 595 -1970 0 -1970 0 0 -595z
m918 309 c8 -26 8 -36 -1 -39 -40 -14 -517 -135 -533 -135 -24 0 -100 45 -88
52 5 3 34 11 64 18 51 11 59 10 88 -7 31 -19 36 -19 88 -5 l55 16 -27 21 -27
22 61 17 c59 16 61 16 95 -4 31 -19 41 -20 79 -10 74 19 76 20 44 37 -32 17
-26 27 24 41 58 17 66 14 78 -24z m336 -201 c5 -40 12 -73 16 -73 4 0 11 34
15 75 l7 75 69 0 69 0 0 -200 0 -200 -45 0 -45 0 -1 118 -2 117 -14 -95 c-22
-146 -19 -140 -53 -140 -17 0 -30 1 -31 3 0 1 -9 54 -19 117 l-18 115 -1 -117
-1 -118 -45 0 -45 0 0 200 0 201 68 -3 67 -3 9 -72z m906 37 c0 -38 -2 -40
-30 -40 l-30 0 0 -160 0 -160 -55 0 -55 0 0 160 0 160 -29 0 c-33 0 -31 8 -57
-188 l-18 -133 -65 3 -66 3 -22 140 c-29 189 -31 175 21 175 l44 0 7 -81 c4
-45 11 -93 15 -107 7 -24 8 -23 9 13 1 22 4 70 8 108 l6 67 43 0 44 0 0 40 0
40 115 0 115 0 0 -40z m520 28 c0 -7 13 -97 29 -200 l28 -188 -53 0 -54 0 0
35 c0 28 -4 35 -20 35 -13 0 -20 -7 -20 -19 0 -42 -10 -51 -61 -51 -34 0 -49
4 -49 13 0 15 37 303 46 355 l5 32 74 0 c53 0 75 -4 75 -12z m-2370 -68 c24
-24 25 -38 4 -68 -18 -26 -50 -28 -76 -5 -25 22 -23 59 4 77 30 21 44 20 68
-4z m1351 -29 c28 -29 29 -32 29 -131 0 -99 -1 -102 -29 -131 -25 -25 -37 -29
-84 -29 -77 0 -102 22 -112 96 -10 86 3 173 31 201 19 19 34 23 79 23 49 0 60
-4 86 -29z m604 -52 c4 -45 11 -93 15 -107 7 -24 8 -23 9 13 1 22 4 70 8 108
l6 67 45 0 c43 0 44 -1 39 -27 -3 -16 -13 -88 -23 -161 l-18 -133 -65 3 -66 3
-22 140 c-29 189 -31 175 21 175 l44 0 7 -81z m585 69 c0 -9 3 -9 12 0 16 16
80 16 96 0 15 -15 17 -261 2 -289 -12 -22 -78 -27 -98 -7 -9 9 -12 4 -12 -25
l0 -37 -50 0 -50 0 0 185 0 185 50 0 c32 0 50 -4 50 -12z m260 0 c0 -9 3 -9
12 0 16 16 80 16 96 0 15 -15 17 -261 2 -289 -12 -22 -78 -27 -98 -7 -9 9 -12
4 -12 -25 l0 -37 -50 0 -50 0 0 185 0 185 50 0 c32 0 50 -4 50 -12z m-2625
-98 c-38 -39 -41 -40 -109 -40 l-70 0 39 40 c38 39 41 40 109 40 l70 0 -39
-40z m250 0 c-38 -39 -41 -40 -104 -40 l-65 0 39 40 c38 39 41 40 104 40 l65
0 -39 -40z m225 0 l0 -40 -67 0 -67 0 39 40 c27 28 48 40 67 40 26 0 28 -3 28
-40z m-624 -197 c11 -64 21 -71 33 -27 6 21 11 45 11 52 0 6 9 12 20 12 18 0
20 -7 20 -65 0 -37 -4 -65 -10 -65 -5 0 -10 18 -10 41 0 48 -15 44 -24 -6 -9
-49 -34 -46 -42 5 -4 22 -10 40 -15 40 -5 0 -9 -18 -9 -40 0 -22 -4 -40 -10
-40 -6 0 -10 28 -10 65 0 58 2 65 20 65 14 0 21 -9 26 -37z m464 27 c0 -5 -9
-10 -20 -10 -18 0 -20 -7 -20 -55 0 -30 -4 -55 -10 -55 -5 0 -10 25 -10 55 0
48 -2 55 -20 55 -11 0 -20 5 -20 10 0 6 23 10 50 10 28 0 50 -4 50 -10z m51
-35 c6 -25 15 -48 19 -50 5 -3 13 18 20 45 7 28 16 50 21 50 13 0 10 -17 -10
-75 -10 -27 -24 -50 -31 -50 -7 0 -21 23 -31 50 -21 59 -23 75 -9 75 5 0 15
-20 21 -45z m-321 -16 c15 -28 5 -66 -20 -74 -48 -15 -85 29 -60 74 15 29 65
29 80 0z m46 4 c18 -57 21 -59 31 -24 5 19 14 36 21 39 9 3 7 -11 -5 -43 -10
-26 -22 -48 -28 -49 -5 0 -17 20 -27 47 -10 27 -13 47 -8 47 6 0 13 -8 16 -17z
m98 -74 c-3 -5 -10 -7 -15 -3 -5 3 -7 10 -3 15 3 5 10 7 15 3 5 -3 7 -10 3
-15z"/>
<path d="M2601 650 c-1 -14 -4 -49 -7 -77 -6 -45 -4 -53 10 -53 12 0 16 9 15
38 0 48 -16 128 -18 92z"/>
<path d="M1565 638 c-10 -25 -1 -203 10 -201 13 4 19 193 6 206 -7 7 -12 5
-16 -5z"/>
<path d="M2850 540 c0 -60 4 -110 9 -110 15 0 21 29 21 110 0 81 -6 110 -21
110 -5 0 -9 -49 -9 -110z"/>
<path d="M3110 540 c0 -60 4 -110 9 -110 15 0 21 29 21 110 0 81 -6 110 -21
110 -5 0 -9 -49 -9 -110z"/>
<path d="M470 361 c-13 -25 -3 -51 20 -51 10 0 21 7 24 16 7 17 -10 54 -24 54
-5 0 -14 -9 -20 -19z"/>
</g>
</svg>
